<svg xmlns="http://www.w3.org/2000/svg" viewBox="0 0 255 255">
  <rect width="255" height="255" rx="47.14" ry="47.14" fill="#0657f9"/>
  <path fill="#fff" d="M122.79,0l-16.87,90.49c17.61-10.13,36.56-13.89,55.74-9.14,28.69,7.11,48.2,31.52,49.31,61.09,1.17,48.04-36.23,86.39-84.7,83.51-16.88-1-31.54-7.18-43.45-18.85l-2.87,14.5-35.94.02L85.8.02l36.99-.02ZM172.5,161.13c3.95-14.57,1.14-29.33-9.57-39.48-10.84-10.27-26.31-12.85-40.61-8.1-20,6.63-32.7,26.61-30.96,47.57,1.4,16.8,12.87,29.64,29.21,33.03,23.38,4.85,45.55-9.56,51.92-33.03Z"/>
</svg>
